<svg  viewBox="0 0 512 499" fill="none" xmlns="http://www.w3.org/2000/svg">
<path d="M95.077 0.499155C56.9792 4.98678 22.6185 27.1322 5.49005 58.3505C-3.12607 73.9596 -6.96699 87.4225 -7.90127 105.178C-8.73174 121.665 -4.26797 141.957 3.41388 156.395C9.43478 167.614 22.8261 184.784 24.3832 183.126C24.5909 182.931 26.4594 178.736 28.6394 173.956C40.266 147.225 60.3011 119.811 83.7618 98.2513C113.14 71.5207 144.179 53.8629 181.861 42.6438C189.231 40.4 195.252 38.2537 195.252 37.8635C195.252 36.3026 178.954 22.7422 171.376 18.157C156.324 8.88906 142.102 3.71854 124.662 1.27961C115.527 -0.0861872 102.551 -0.378858 95.077 0.499155Z" fill="#4527A0"/>
<path d="M389.79 1.18207C366.225 4.79168 345.567 14.4498 327.92 29.9614C323.456 33.8637 319.823 37.4733 319.823 37.8635C319.823 38.2538 325.844 40.4 333.214 42.6438C370.897 53.8629 401.936 71.5207 431.313 98.2513C454.774 119.811 474.809 147.225 486.436 173.956C488.616 178.736 490.484 182.931 490.692 183.126C492.249 184.784 505.64 167.614 511.661 156.395C519.551 141.469 523.807 121.567 522.873 104.202C521.627 80.2033 513.011 58.9358 497.024 40.3024C484.567 25.9616 465.57 13.084 447.508 6.74282C430.587 0.889397 406.815 -1.45197 389.79 1.18207Z" fill="#4527A0"/>
<path d="M235.219 63.3259C213.211 65.4722 186.325 72.4963 166.186 81.4715C87.7065 116.299 37.9822 192.687 42.0307 272.391C44.2107 316.389 58.1211 352.973 85.4228 387.313L91.4437 394.825V425.36C91.4437 466.627 93.0008 472.675 106.6 485.358C121.548 499.406 143.348 502.918 162.864 494.431C175.425 488.967 187.363 474.627 189.543 462.432C189.958 460.188 190.581 458.334 190.996 458.334C191.411 458.334 194.11 459.017 196.913 459.798C219.128 466.139 249.337 469.066 273.317 467.212C288.369 466.139 307.054 463.017 318.162 459.798C320.965 459.017 323.664 458.334 324.079 458.334C324.494 458.334 325.117 460.188 325.532 462.432C327.712 474.627 339.65 488.967 352.211 494.431C371.727 502.918 393.527 499.406 408.475 485.358C422.074 472.675 423.632 466.627 423.632 425.36V394.825L429.652 387.313C472.733 333.364 484.775 264.293 462.248 201.076C430.172 111.226 335.187 53.5702 235.219 63.3259ZM286.604 95.8124C350.965 105.861 405.05 147.323 428.303 204.589C436.192 224.198 439.618 242.441 439.618 265.171C439.618 282.244 438.476 292 434.428 307.219C427.784 332.486 413.354 358.143 394.773 377.947C365.602 409.068 327.505 428.58 283.49 435.018C272.175 436.677 242.901 436.677 231.585 435.018C172.414 426.336 123.313 393.459 95.596 344.095C81.7895 319.218 75.4571 294.536 75.4571 265.171C75.4571 256.294 76.08 245.367 76.8066 240.782C86.0456 185.175 121.029 139.03 173.556 112.982C195.149 102.349 214.561 97.0806 244.042 94.0564C250.79 93.2759 277.78 94.4466 286.604 95.8124Z" fill="#4527A0"/>
<path d="M240.928 196.394C240.928 263.415 241.032 268.391 242.797 271.805C243.835 273.757 259.302 299.219 277.157 328.291L309.546 381.069L323.975 373.362L338.405 365.558L324.806 343.412C317.331 331.218 302.902 307.706 292.625 291.122L274.147 261.074V192.882V124.689H257.538H240.928V196.394Z" fill="#4527A0"/>
</svg>
