<svg width="512" height="512" viewBox="0 0 512 512" fill="none" xmlns="http://www.w3.org/2000/svg">
<g clip-path="url(#clip0)">
<path d="M74.2248 246.914L24.7422 296.396L45.9487 317.604L17.6707 345.881L166.119 494.329L194.397 466.051L215.604 487.259L265.086 437.775L74.2248 246.914Z" fill="#4527A0"/>
<path d="M345.881 17.6707L317.604 45.9487L296.396 24.7422L246.914 74.2248L437.775 265.086L487.259 215.604L466.051 194.397L494.329 166.119L345.881 17.6707Z" fill="#4527A0"/>
<path d="M405.92 35.391L441.259 0.0514019L511.938 70.73L476.598 106.07L405.92 35.391Z" fill="#4527A0"/>
<path d="M-0.0468445 441.271L35.2928 405.931L105.971 476.61L70.6317 511.95L-0.0468445 441.271Z" fill="#4527A0"/>
<path d="M155.477 285.79L285.736 155.532L356.414 226.21L226.156 356.469L155.477 285.79Z" fill="#4527A0"/>
</g>
<defs>
<clipPath id="clip0">
<rect width="512" height="512" fill="white"/>
</clipPath>
</defs>
</svg>
