<svg id="Capa_1" enable-background="new 0 0 512.009 512.009" height="512" viewBox="0 0 512.009 512.009" width="512" xmlns="http://www.w3.org/2000/svg" xmlns:xlink="http://www.w3.org/1999/xlink"><linearGradient id="lg1"><stop offset="0" stop-color="#ffc2cc"/><stop offset="1" stop-color="#fff2f4"/></linearGradient><linearGradient id="SVGID_1_" gradientUnits="userSpaceOnUse" x1="256.005" x2="256.005" xlink:href="#lg1" y1="512.009" y2="0"/><linearGradient id="lg2"><stop offset="0" stop-color="#fd3a84"/><stop offset="1" stop-color="#ffa68d"/></linearGradient><linearGradient id="SVGID_2_" gradientUnits="userSpaceOnUse" x1="256.005" x2="256.005" xlink:href="#lg2" y1="481" y2="61"/><linearGradient id="SVGID_3_" gradientUnits="userSpaceOnUse" x1="256.005" x2="256.005" xlink:href="#lg1" y1="421" y2="121"/><linearGradient id="SVGID_4_" gradientUnits="userSpaceOnUse" x1="256.005" x2="256.005" xlink:href="#lg2" y1="158.027" y2=".857"/><linearGradient id="SVGID_5_" gradientUnits="userSpaceOnUse" x1="226.005" x2="226.005" xlink:href="#lg2" y1="346" y2="181"/><g><g><g><path d="m131.61 110.395-31-31c-5.859-5.859-15.352-5.859-21.211 0s-5.859 15.352 0 21.211l31 31c2.93 2.93 6.768 4.395 10.605 4.395s7.676-1.465 10.605-4.395c5.86-5.86 5.86-15.352.001-21.211zm301-31c-5.859-5.859-15.352-5.859-21.211 0l-35.893 35.878c-5.859 5.859-5.859 15.352 0 21.211 2.93 2.93 6.768 4.395 10.605 4.395s7.676-1.465 10.605-4.395l35.893-35.878c5.86-5.86 5.86-15.352.001-21.211zm-263.031 349.471c-7.295-3.618-16.377-.688-20.127 6.709l-26.865 54.716c-3.691 7.412-.703 16.421 6.709 20.127 2.139 1.069 4.453 1.582 6.709 1.582 5.479 0 10.781-3.032 13.418-8.291l26.865-54.716c3.691-7.412.703-16.421-6.709-20.127zm116.426-428.866h-60c-8.291 0-15 6.709-15 15s6.709 15 15 15h15v46c0 8.291 6.709 15 15 15s15-6.709 15-15v-46h15c8.291 0 15-6.709 15-15s-6.709-15-15-15zm76.552 435.584c-3.721-7.427-12.803-10.356-20.127-6.709-7.412 3.706-10.4 12.715-6.709 20.127l26.865 54.716c2.637 5.259 7.939 8.291 13.418 8.291 2.256 0 4.57-.513 6.709-1.582 7.412-3.706 10.4-12.715 6.709-20.127z" fill="url(#SVGID_1_)"/></g></g><g id="Alarm_Clock_1_"><g><path d="m256.005 481c-115.781 0-210-94.204-210-210s94.219-210 210-210 210 94.204 210 210-94.219 210-210 210z" fill="url(#SVGID_2_)"/></g><g><path d="m256.005 421c-82.705 0-150-67.295-150-150s67.295-150 150-150 150 67.295 150 150-67.295 150-150 150z" fill="url(#SVGID_3_)"/></g><g><g><path d="m26.372 26.367c-16.992 16.978-26.367 39.58-26.367 63.633s9.375 46.655 26.367 63.633c2.93 2.93 6.768 4.395 10.605 4.395s7.676-1.465 10.605-4.395l106.055-106.055c2.813-2.813 4.395-6.636 4.395-10.605 0-3.984-1.582-7.793-4.395-10.605-34.043-34.014-93.222-34.014-127.265-.001zm459.265 0c-34.043-34.014-93.223-34.014-127.266 0-2.813 2.813-4.395 6.621-4.395 10.605 0 3.97 1.582 7.793 4.395 10.605l106.055 106.055c2.93 2.93 6.768 4.395 10.605 4.395s7.676-1.465 10.605-4.395c16.992-16.978 26.367-39.58 26.367-63.633s-9.373-46.654-26.366-63.632z" fill="url(#SVGID_4_)"/></g></g><g><path d="m196.005 346c-3.838 0-7.676-1.465-10.605-4.395-5.859-5.859-5.859-15.352 0-21.211l55.605-55.605v-68.789c0-8.291 6.709-15 15-15s15 6.709 15 15v75c0 3.984-1.582 7.793-4.395 10.605l-60 60c-2.93 2.93-6.767 4.395-10.605 4.395z" fill="url(#SVGID_5_)"/></g></g></g></svg>